<svg width="20" height="21" viewBox="0 0 20 21" fill="none" xmlns="http://www.w3.org/2000/svg">
<g clip-path="url(#clip0_2610_167)">
<path d="M14.2271 0.166992H10.8565V13.7902C10.8565 15.4134 9.56018 16.7467 7.94691 16.7467C6.33363 16.7467 5.03726 15.4134 5.03726 13.7902C5.03726 12.196 6.30483 10.8916 7.8605 10.8337V7.41338C4.43229 7.47133 1.66669 10.2829 1.66669 13.7902C1.66669 17.3264 4.4899 20.167 7.97573 20.167C11.4615 20.167 14.2847 17.2974 14.2847 13.7902V6.80466C15.5523 7.73221 17.1079 8.28294 18.75 8.31194V4.89163C16.2149 4.80468 14.2271 2.71771 14.2271 0.166992Z" fill="#6D6D6D"/>
</g>
<defs>
<clipPath id="clip0_2610_167">
<rect width="20" height="20" fill="white" transform="translate(0 0.166992)"/>
</clipPath>
</defs>
</svg>
