<svg width="20" height="21" viewBox="0 0 20 21" fill="none" xmlns="http://www.w3.org/2000/svg">
<g clip-path="url(#clip0_2610_158)">
<path d="M10 0.166992C4.4772 0.166992 0 4.64419 0 10.167C0 14.8566 3.2288 18.7918 7.5844 19.8726V13.223H5.5224V10.167H7.5844V8.85019C7.5844 5.44659 9.1248 3.86899 12.4664 3.86899C13.1 3.86899 14.1932 3.99339 14.6404 4.11739V6.88739C14.4044 6.86259 13.9944 6.85019 13.4852 6.85019C11.8456 6.85019 11.212 7.47139 11.212 9.08619V10.167H14.4784L13.9172 13.223H11.212V20.0938C16.1636 19.4958 20.0004 15.2798 20.0004 10.167C20 4.64419 15.5228 0.166992 10 0.166992Z" fill="#6D6D6D"/>
</g>
<defs>
<clipPath id="clip0_2610_158">
<rect width="20" height="20" fill="white" transform="translate(0 0.166992)"/>
</clipPath>
</defs>
</svg>
