<svg width="20" height="21" viewBox="0 0 20 21" fill="none" xmlns="http://www.w3.org/2000/svg">
<g clip-path="url(#clip0_2610_160)">
<path d="M10 1.96777C12.6719 1.96777 12.9883 1.97949 14.0391 2.02637C15.0156 2.06934 15.543 2.2334 15.8945 2.37012C16.3594 2.5498 16.6953 2.76855 17.043 3.11621C17.3945 3.46777 17.6094 3.79981 17.7891 4.26465C17.9258 4.61621 18.0898 5.14746 18.1328 6.12012C18.1797 7.1748 18.1914 7.49121 18.1914 10.1592C18.1914 12.8311 18.1797 13.1475 18.1328 14.1982C18.0898 15.1748 17.9258 15.7022 17.7891 16.0537C17.6094 16.5186 17.3906 16.8545 17.043 17.2022C16.6914 17.5537 16.3594 17.7686 15.8945 17.9482C15.543 18.085 15.0117 18.249 14.0391 18.292C12.9844 18.3389 12.668 18.3506 10 18.3506C7.32812 18.3506 7.01172 18.3389 5.96094 18.292C4.98438 18.249 4.45703 18.085 4.10547 17.9482C3.64062 17.7686 3.30469 17.5498 2.95703 17.2022C2.60547 16.8506 2.39062 16.5186 2.21094 16.0537C2.07422 15.7022 1.91016 15.1709 1.86719 14.1982C1.82031 13.1436 1.80859 12.8271 1.80859 10.1592C1.80859 7.48731 1.82031 7.1709 1.86719 6.12012C1.91016 5.14355 2.07422 4.61621 2.21094 4.26465C2.39062 3.79981 2.60937 3.46387 2.95703 3.11621C3.30859 2.76465 3.64062 2.5498 4.10547 2.37012C4.45703 2.2334 4.98828 2.06934 5.96094 2.02637C7.01172 1.97949 7.32812 1.96777 10 1.96777ZM10 0.166992C7.28516 0.166992 6.94531 0.178711 5.87891 0.225586C4.81641 0.272461 4.08594 0.444336 3.45312 0.69043C2.79297 0.948242 2.23438 1.28809 1.67969 1.84668C1.12109 2.40137 0.78125 2.95996 0.523437 3.61621C0.277344 4.25293 0.105469 4.97949 0.0585938 6.04199C0.0117188 7.1123 0 7.45215 0 10.167C0 12.8818 0.0117188 13.2217 0.0585938 14.2881C0.105469 15.3506 0.277344 16.0811 0.523437 16.7139C0.78125 17.374 1.12109 17.9326 1.67969 18.4873C2.23438 19.042 2.79297 19.3857 3.44922 19.6396C4.08594 19.8857 4.8125 20.0576 5.875 20.1045C6.94141 20.1514 7.28125 20.1631 9.99609 20.1631C12.7109 20.1631 13.0508 20.1514 14.1172 20.1045C15.1797 20.0576 15.9102 19.8857 16.543 19.6396C17.1992 19.3857 17.7578 19.042 18.3125 18.4873C18.8672 17.9326 19.2109 17.374 19.4648 16.7178C19.7109 16.0811 19.8828 15.3545 19.9297 14.292C19.9766 13.2256 19.9883 12.8857 19.9883 10.1709C19.9883 7.45606 19.9766 7.11621 19.9297 6.04981C19.8828 4.98731 19.7109 4.25684 19.4648 3.62402C19.2187 2.95996 18.8789 2.40137 18.3203 1.84668C17.7656 1.29199 17.207 0.948242 16.5508 0.694336C15.9141 0.448242 15.1875 0.276367 14.125 0.229492C13.0547 0.178711 12.7148 0.166992 10 0.166992Z" fill="#6D6D6D"/>
<path d="M10 5.03027C7.16406 5.03027 4.86328 7.33105 4.86328 10.167C4.86328 13.0029 7.16406 15.3037 10 15.3037C12.8359 15.3037 15.1367 13.0029 15.1367 10.167C15.1367 7.33105 12.8359 5.03027 10 5.03027ZM10 13.499C8.16016 13.499 6.66797 12.0068 6.66797 10.167C6.66797 8.32715 8.16016 6.83496 10 6.83496C11.8398 6.83496 13.332 8.32715 13.332 10.167C13.332 12.0068 11.8398 13.499 10 13.499Z" fill="#6D6D6D"/>
<path d="M16.5391 4.82715C16.5391 5.49121 16 6.02637 15.3398 6.02637C14.6758 6.02637 14.1406 5.48731 14.1406 4.82715C14.1406 4.16309 14.6797 3.62793 15.3398 3.62793C16 3.62793 16.5391 4.16699 16.5391 4.82715Z" fill="#6D6D6D"/>
</g>
<defs>
<clipPath id="clip0_2610_160">
<rect width="20" height="20" fill="white" transform="translate(0 0.166992)"/>
</clipPath>
</defs>
</svg>
