<svg width="20" height="21" viewBox="0 0 20 21" fill="none" xmlns="http://www.w3.org/2000/svg">
<g clip-path="url(#clip0_2610_164)">
<path d="M19.1922 6.23453L16.8562 8.57047C16.3844 14.0408 11.7711 18.2923 6.24998 18.2923C5.1156 18.2923 4.18045 18.1127 3.47029 17.758C2.89763 17.4713 2.66326 17.1642 2.60467 17.0767C2.55242 16.9984 2.51855 16.9092 2.5056 16.8159C2.49265 16.7227 2.50095 16.6277 2.52987 16.538C2.55879 16.4484 2.60759 16.3665 2.67263 16.2984C2.73767 16.2303 2.81725 16.1777 2.90545 16.1447C2.92576 16.1369 4.7992 15.4173 5.98904 14.0478C5.32918 13.5053 4.75316 12.8682 4.27967 12.1572C3.31092 10.7189 2.22654 8.22047 2.56092 4.48688C2.57151 4.36824 2.61579 4.2551 2.68853 4.16079C2.76128 4.06647 2.85946 3.99491 2.97151 3.95452C3.08356 3.91413 3.20482 3.9066 3.32101 3.93282C3.43719 3.95904 3.54347 4.01791 3.62732 4.1025C3.65467 4.12985 6.22732 6.68844 9.37263 7.51813V7.04235C9.37144 6.54343 9.47008 6.04933 9.66275 5.58912C9.85542 5.12891 10.1382 4.71191 10.4945 4.36266C10.8405 4.01713 11.2522 3.74441 11.7054 3.56058C12.1585 3.37676 12.6438 3.28555 13.1328 3.29235C13.7887 3.29882 14.4318 3.47489 14.9995 3.80344C15.5672 4.132 16.0403 4.60186 16.3726 5.16735H18.75C18.8737 5.16725 18.9946 5.20385 19.0975 5.27252C19.2003 5.34119 19.2805 5.43884 19.3279 5.5531C19.3752 5.66737 19.3876 5.79311 19.3634 5.91441C19.3393 6.03572 19.2797 6.14712 19.1922 6.23453Z" fill="#6D6D6D"/>
</g>
<defs>
<clipPath id="clip0_2610_164">
<rect width="20" height="20" fill="white" transform="translate(0 0.166992)"/>
</clipPath>
</defs>
</svg>
